<?xml version="1.0" encoding="utf-8"?>
<!-- Generator: Adobe Illustrator 22.0.0, SVG Export Plug-In . SVG Version: 6.00 Build 0)  -->
<svg version="1.1" id="Layer_1" xmlns="http://www.w3.org/2000/svg" xmlns:xlink="http://www.w3.org/1999/xlink" x="0px" y="0px"
	 viewBox="0 0 404.6 96" style="enable-background:new 0 0 404.6 96;" xml:space="preserve">
<style type="text/css">
	.st0{fill:#FFFFFF;}
</style>
<g>
	<g>
		<rect x="176.8" y="20.1" class="st0" width="202.5" height="54.6"/>
		<path d="M379.8,75.2H176.3V19.6h203.5V75.2z M177.3,74.2h201.5V20.6H177.3V74.2z"/>
	</g>
	<g>
		<g>
			<path class="st0" d="M40.5,27.3c1.7,0,2.7,0.4,3.7,1.2c0.9,0.8,1.4,1.9,1.4,3.3v13.1c0,1.4-0.5,2.5-1.4,3.3
				c-0.9,0.8-2,1.2-3.7,1.2h-2v18.4h-2.5V27.3H40.5z M42.9,31.8c0-0.7-0.3-1.3-0.6-1.7c-0.4-0.5-1.1-0.7-1.8-0.7h-2v17.5h2
				c0.7-0.1,1.4-0.3,1.8-0.7c0.4-0.4,0.6-1,0.6-1.7V31.8z"/>
		</g>
		<g>
			<path class="st0" d="M72.8,27.2h2.5v40.7h-2.5V51.3h-4.5v16.6h-2.5V27.2h2.5v21.5h4.5V27.2z"/>
		</g>
		<g>
			<path class="st0" d="M95.6,31.6c0-0.7-0.1-1.4,0.2-1.9c0.2-0.6,0.5-1,0.9-1.4c0.5-0.4,0.9-0.7,1.5-0.9c0.7-0.3,1.3-0.4,2.1-0.4
				c1.6,0,2.4,0.4,3.3,1.2c0.9,0.8,1.5,1.9,1.5,3.3v32c0,1.4-0.6,2.5-1.5,3.2c-0.9,0.8-1.7,1.2-3.3,1.2c-0.8,0-1.5-0.1-2.1-0.3
				c-0.6-0.2-1.1-0.5-1.5-0.9s-0.7-0.9-0.9-1.4c-0.3-0.6-0.2-1.2-0.2-1.9V31.6z M102.6,31.6c0-0.7-0.2-1.2-0.6-1.6
				c-0.4-0.5-0.9-0.7-1.7-0.7c-0.8,0-1.2,0.3-1.6,0.7c-0.4,0.4-0.5,1-0.5,1.6v31.9c0,0.7,0.1,1.2,0.5,1.7c0.4,0.5,0.8,0.7,1.6,0.7
				c0.8,0,1.3-0.2,1.7-0.7s0.6-1,0.6-1.7V31.6z"/>
		</g>
		<g>
			<path class="st0" d="M135,27.3v2.5h-3.5v38.1H129V29.8h-3.5v-2.5H135z"/>
		</g>
		<g>
			<path class="st0" d="M155.3,31.6c0-0.7-0.1-1.4,0.2-1.9c0.2-0.6,0.5-1,0.9-1.4c0.5-0.4,0.9-0.7,1.5-0.9c0.7-0.3,1.3-0.4,2.1-0.4
				c1.6,0,2.4,0.4,3.3,1.2c0.9,0.8,1.5,1.9,1.5,3.3v32c0,1.4-0.6,2.5-1.5,3.2c-0.9,0.8-1.7,1.2-3.3,1.2c-0.8,0-1.5-0.1-2.1-0.3
				c-0.6-0.2-1.1-0.5-1.5-0.9s-0.7-0.9-0.9-1.4c-0.3-0.6-0.2-1.2-0.2-1.9V31.6z M162.3,31.6c0-0.7-0.2-1.2-0.6-1.6
				c-0.4-0.5-0.9-0.7-1.7-0.7c-0.8,0-1.2,0.3-1.6,0.7c-0.4,0.4-0.5,1-0.5,1.6v31.9c0,0.7,0.1,1.2,0.5,1.7c0.4,0.5,0.8,0.7,1.6,0.7
				c0.8,0,1.3-0.2,1.7-0.7s0.6-1,0.6-1.7V31.6z"/>
		</g>
		<g>
			<path d="M192.1,42.9V31.4c0-0.7-0.2-1.2-0.6-1.6c-0.4-0.5-0.9-0.7-1.7-0.7s-1.2,0.3-1.6,0.7c-0.4,0.4-0.5,1-0.5,1.6v31.9
				c0,0.7,0.1,1.2,0.5,1.7c0.4,0.5,0.8,0.7,1.6,0.7s1.3-0.2,1.7-0.7s0.6-1,0.6-1.7V51.1h-1.6v-2.6h4.2v14.9c0,1.4-0.6,2.5-1.5,3.2
				c-0.9,0.8-1.7,1.2-3.3,1.2c-0.8,0-1.5-0.1-2.1-0.3c-0.6-0.2-1.1-0.5-1.5-0.9s-0.7-0.9-0.9-1.4c-0.3-0.6-0.2-1.2-0.2-1.9v-32
				c0-0.7-0.1-1.4,0.2-1.9c0.2-0.6,0.5-1,0.9-1.4c0.5-0.4,0.9-0.7,1.5-0.9c0.7-0.2,1.3-0.4,2.1-0.4c1.6,0,2.4,0.4,3.3,1.2
				c0.9,0.8,1.5,1.9,1.5,3.3v11.5H192.1z"/>
		</g>
		<g>
			<path d="M222.1,67.9l-0.6-7h-3.4l-0.6,7H215l3.6-40.7h2.5l3.6,40.7H222.1z M218.4,58.4h2.9l-1.5-16.5L218.4,58.4z"/>
		</g>
		<g>
			<path d="M247.5,65.3h5.5v2.5h-8V27.2h2.5V65.3z"/>
		</g>
		<g>
			<path d="M275.8,65.3h5.5v2.5h-8V27.2h2.5V65.3z"/>
		</g>
		<g>
			<path d="M304.2,29.8v17.1h3.7v2.5h-3.7v15.9h5.6v2.5h-8.1V27.2h8.1v2.6H304.2z"/>
		</g>
		<g>
			<path d="M339.6,44.5c0,1.4-0.5,2.5-1.4,3.3c-0.1,0.1-0.1,0.1-0.2,0.2c0.1,0.1,0.1,0.1,0.2,0.2c0.9,0.8,1.4,1.9,1.4,3.3v16.4H337
				V51.8c0-0.7-0.3-1.2-0.6-1.6c-0.4-0.5-1-0.7-1.7-0.7h-2.1v18.4h-2.5V27.3h4.5c1.7,0,2.7,0.4,3.7,1.2c0.9,0.8,1.4,1.9,1.4,3.3
				V44.5z M332.6,29.4v17.5h2c0.7-0.1,1.4-0.3,1.8-0.7c0.4-0.4,0.6-1,0.6-1.7V31.8c0-0.7-0.3-1.3-0.6-1.7c-0.4-0.5-1.1-0.7-1.8-0.7
				H332.6z"/>
		</g>
		<g>
			<path d="M370.8,27.2l-4.2,20.4v20.3h-2.5V47.5l-4.2-20.3h2.5l2.9,14.1l2.9-14.1H370.8z"/>
		</g>
	</g>
</g>
</svg>
